<svg width="183" height="231" viewBox="0 0 183 231" fill="none" xmlns="http://www.w3.org/2000/svg">
<path d="M41.5745 102.455C40.3647 100.051 39.1934 97.6155 38.0683 95.1728C35.8644 90.3951 33.7993 85.5019 32.8746 80.3235C29.877 63.6172 38.5153 45.4005 50.914 34.6893C68.5605 19.4548 93.5584 13.6985 113 0.182373C111.923 6.82631 108.372 12.8166 103.06 16.9504C112.16 9.93802 139.277 21.4891 147.754 25.8198C161.809 32.8961 173.752 43.5483 182.384 56.705C173.233 52.985 163.272 51.7103 153.479 53.0062C161.093 60.3807 169.014 68.2484 171.896 78.4356C158.234 68.5875 136.418 73.3266 128.096 88.0063C122.756 97.4075 122.833 108.858 119.62 119.192C116.229 130.134 107.082 137.085 96.3248 139.998C88.2182 142.217 72.267 143.219 64.9233 138.457C62.6963 137.016 61.0704 134.812 59.5754 132.639C52.8624 123.02 46.8467 112.933 41.5745 102.455Z" fill="#443D3C"/>
<ellipse cx="50.0736" cy="105.514" rx="13.1" ry="13.1" fill="#F2A196"/>
<ellipse cx="54.5892" cy="104.743" rx="12.3294" ry="12.3294" fill="#E88870"/>
<path d="M174.593 200.474C123.081 240.137 51.2304 239.82 0.0703125 199.703L37.5671 182.126C39.3529 181.286 41.0668 180.302 42.6915 179.182C43.1847 178.843 43.6779 178.489 44.148 178.119C48.2289 174.996 51.5881 171.03 53.9961 166.491C57.0784 160.673 58.0956 154.246 58.1418 147.696C58.1418 145.531 58.0956 143.358 58.034 141.185C57.9723 139.011 57.8798 136.707 57.8567 134.465C57.8259 132.025 57.8002 129.582 57.7797 127.137L59.3208 127.907L63.3279 129.98L65.185 130.296L86.669 133.949L110.65 138.033L111.374 162.692L111.675 172.933L111.729 174.667V174.921L121.053 178.712L174.593 200.474Z" fill="#F2A196"/>
<path d="M111.659 172.879L110.472 173.002C98.8756 174.019 87.4173 169.891 79.1326 161.713L57.8798 136.661C57.8104 134.426 57.8798 136.661 57.8798 134.419C57.849 131.978 57.8233 129.536 57.8027 127.09L59.3439 127.861L63.351 129.934L65.2081 130.25L86.6921 133.902L110.673 137.986L111.397 162.645L111.659 172.879Z" fill="#E88870"/>
<path d="M56.7466 81.0787C54.3435 83.2039 52.7982 86.1329 52.4005 89.3163C50.79 104.366 56.3613 122.128 57.9102 137.201L85.9751 157.899C95.3009 164.865 107.216 167.384 118.563 164.788C123.087 163.717 125.953 163.023 127.995 159.394C131.941 152.458 141.627 128.732 142.259 111.995C142.436 107.24 142.32 99.9966 139.392 95.951C137.967 93.986 137.235 93.9398 137.751 91.1657C138.283 88.2683 139.045 85.4017 139.685 82.5274C140.614 78.3698 140.874 74.0907 140.456 69.8512C140.032 65.9983 140.047 62.5768 139.639 58.6546C139.438 56.7512 138.591 48.4211 138.591 48.4211C133.698 55.788 124.867 59.6563 116.698 62.1993C105.587 65.6515 94.02 67.3391 82.754 70.2365C75.287 72.1861 63.2119 74.9602 56.7466 81.0787Z" fill="#F2A196"/>
<path d="M90.044 92.6914C94.7446 92.7299 94.7446 99.9195 90.044 99.958H89.8359C85.1276 99.9195 85.1276 92.7299 89.8359 92.6914H90.044Z" fill="#00214E"/>
<path d="M130.646 90.4954C135.016 90.4954 135.016 97.1995 130.646 97.238H130.454C126.092 97.1995 126.092 90.5262 130.454 90.4954H130.646Z" fill="#00214E"/>
<path d="M93.4883 127.33C97.19 131.466 102.266 134.119 107.775 134.797" stroke="#00214E"/>
<path d="M79.1016 84.0686C86.2346 82.5893 93.5727 82.3806 100.778 83.4521" stroke="#443D3C"/>
<path d="M124.605 84.1148C129.011 83.097 133.549 82.7823 138.052 83.1824" stroke="#443D3C"/>
<path d="M174.593 200.474C123.081 240.137 51.2304 239.82 0.0703125 199.703L37.5671 182.126C39.3529 181.287 41.0668 180.302 42.6915 179.183C43.1847 178.843 43.6779 178.489 44.148 178.119C62.2953 191.034 87.062 199.179 108.484 189.539C113.586 187.227 118.271 183.498 121.045 178.705L174.593 200.474Z" fill="#6F5652"/>
<path d="M102.99 114.36C101.84 114.949 101.291 116.288 101.696 117.515C102.102 118.742 103.342 119.49 104.616 119.277" stroke="#00214E"/>
<path d="M114.865 91.9827C116.784 99.3418 118.379 106.624 120.205 113.998C120.42 114.675 120.498 115.387 120.437 116.094C120.105 118.213 117.585 119.084 115.489 119.539" stroke="#00214E"/>
</svg>
