<svg width="176" height="227" viewBox="0 0 176 227" fill="none" xmlns="http://www.w3.org/2000/svg">
<path d="M175.447 196.519C123.934 236.182 52.0839 235.864 0.923828 195.748L38.4207 178.171C40.2064 177.331 41.9203 176.347 43.5451 175.227C44.0382 174.888 44.5314 174.534 45.0015 174.164C49.0824 171.041 52.4416 167.075 54.8496 162.536C56.6701 159.048 57.8794 155.274 58.4251 151.377C58.8014 148.849 58.992 146.297 58.9954 143.741C58.9954 141.075 58.926 138.408 58.8335 135.742C58.7796 134.001 58.7334 132.251 58.7102 130.51C58.6794 128.07 58.6537 125.627 58.6332 123.182L60.1744 123.952L64.1814 126.025L66.0385 126.341L87.5225 129.994L111.503 134.078L112.228 158.737L112.466 166.797L112.582 170.712V170.95L113.353 171.274L121.883 174.742L175.447 196.519Z" fill="#F2A196"/>
<path d="M112.574 170.95C109.723 171.282 104.868 170.18 102.186 168.723C92.1688 163.191 87.1677 158.706 81.8583 154.791C75.5395 150.122 58.8948 135.141 58.8948 135.141C58.8409 133.4 58.733 132.244 58.7099 130.518C58.679 128.078 58.6534 125.635 58.6328 123.189L60.174 123.96L64.181 126.033L66.0382 126.349L87.5222 130.001L111.503 134.086L112.227 158.744L112.466 166.805L112.582 170.719V170.95H112.574Z" fill="#E88870"/>
<path d="M175.447 196.519C123.934 236.182 52.0839 235.865 0.923828 195.748L38.4207 178.171C40.2064 177.332 41.9203 176.347 43.5451 175.227C44.0382 174.888 44.5314 174.534 45.0015 174.164C63.1488 187.079 87.9155 195.224 109.338 185.584C114.439 183.272 119.124 179.543 121.898 174.75L175.447 196.519Z" fill="black"/>
<path d="M161.653 42.1853C161.584 42.6399 161.499 43.0868 161.399 43.5338C160.864 45.8248 160.005 48.0278 158.848 50.0761L158.787 50.184C158.347 50.9545 157.877 51.7251 157.369 52.4957C156.019 54.474 154.547 56.3656 152.961 58.1595L152.013 59.2153C151.373 59.9319 150.726 60.6331 150.079 61.3267C153.508 60.5561 156.829 63.754 157.438 67.2063C158.047 70.6585 156.667 74.1415 154.964 77.2239C151.982 82.6797 147.682 86.3091 143.899 91.0483C141.063 94.5776 139.491 98.7541 136.401 102.129L136.17 102.384C128.009 110.953 115.125 112.956 104.398 116.616C100.545 117.942 58.7642 129.809 58.7642 132.398C58.7642 131.835 54.6723 127.774 49.5171 122.835C31.023 105.273 24.943 78.1409 35.947 54.8691C47.7756 29.825 74.6383 11.9551 100.222 3.37072C108.221 0.68907 117.298 -1.11411 124.881 2.60013C132.463 6.31437 136.239 17.8347 129.951 23.46C133.906 20.4677 138.825 19.0383 143.768 19.4452C148.333 19.7312 152.638 21.6675 155.881 24.8932C158.45 27.474 160.297 30.6838 161.237 34.202C161.934 36.8045 162.076 39.5244 161.653 42.1853Z" fill="#211E1F"/>
<path d="M161.654 42.1852C161.584 42.6398 161.499 43.0868 161.399 43.5337C161.33 43.6647 161.261 43.8034 161.191 43.9575C160.32 45.9457 159.92 48.0879 158.879 50.076L158.818 50.1839C158.379 50.9545 157.909 51.7251 157.4 52.4957C156.064 54.4834 154.591 56.3759 152.992 58.1595L152.014 59.2152C151.374 59.9318 150.727 60.6331 150.079 61.3266C153.508 60.556 156.83 63.7539 157.438 67.2062C158.047 70.6584 156.668 74.1415 154.965 77.2238C151.983 82.6796 147.683 86.3091 143.899 91.0482C141.063 94.5775 139.491 98.7541 136.401 102.129C132.814 97.863 130.529 92.6548 129.821 87.1259C128.557 76.9079 129.327 65.7729 128.981 55.4316C128.765 48.9278 126.669 47.7257 130.568 42.4626C133.704 38.5943 137.33 35.1515 141.356 32.2215C144.5 30.1486 148.546 29.8249 152.299 30.3567C155.569 30.8038 158.654 32.1361 161.222 34.2096C161.923 36.8086 162.07 39.5258 161.654 42.1852Z" fill="#211E1F"/>
<ellipse cx="51.0502" cy="101.598" rx="13.1" ry="13.1" fill="#F2A196"/>
<circle cx="55.2039" cy="101.597" r="11.7284" fill="#E88870"/>
<path d="M55.3809 89.2682L58.756 131.651L109.954 163.152C117.308 165.892 125.54 162.596 128.972 155.539C132.872 147.576 136.254 139.371 139.098 130.972C141.132 124.931 143.12 118.728 143.313 112.301C143.505 105.874 141.679 99.2011 139.46 93.2676C139.229 92.6434 137.996 90.7246 138.104 90.0696C138.961 84.9324 139.814 79.8105 140.662 74.7041C141.633 68.917 142.873 62.8756 141.432 57.0576C139.791 50.3844 134.751 47.5409 130.606 42.5552C119.694 56.6107 101.755 64.5555 86.0888 72.6081C78.0362 76.7693 55.3809 89.2682 55.3809 89.2682Z" fill="#F2A196"/>
<path d="M140.509 126.641C137.187 139.68 133.512 153.111 130.776 157.935C128.726 161.534 125.867 162.227 121.344 163.329C109.997 165.926 98.0812 163.407 88.7558 156.44L58.6335 132.182C58.1712 127.643 57.8629 126.95 57.6394 122.388C57.5316 120.323 56.8689 118.257 57.362 116.223C57.4975 117.292 57.9543 118.294 58.672 119.097C62.3169 124.045 66.5706 129.631 72.6274 131.666C78.9462 133.785 86.1358 134.116 92.2389 131.126C97.5482 128.522 102.75 125.123 108.29 122.981C111.975 121.46 115.952 120.773 119.934 120.97C125.59 121.355 128.01 123.906 132.148 127.273C133.504 128.383 135.022 129.539 136.771 129.585C138.744 129.547 138.844 127.913 140.509 126.641Z" fill="#211E1F"/>
<path d="M93.2324 87.573C97.933 87.573 97.933 94.8011 93.2324 94.8396H93.0167C88.3161 94.8396 88.3161 87.6115 93.0167 87.573H93.2324Z" fill="#2E0C02"/>
<path d="M131.854 86.5017C136.224 86.5402 136.224 93.2058 131.854 93.2444H131.662C127.3 93.2444 127.3 86.5402 131.662 86.5017H131.854Z" fill="#2E0C02"/>
<path d="M112.813 85.4846C112.752 85.7543 123.109 113.326 123.109 113.326L109.284 113.996" stroke="#00214E"/>
<path d="M80.0791 80.1522C87.213 78.6792 94.5504 78.4732 101.756 79.5434" stroke="#32272A"/>
<path d="M125.582 80.2368C129.987 79.2151 134.525 78.9004 139.029 79.3044" stroke="#32272A"/>
<path d="M108.49 128.568C112.821 130.066 117.516 130.152 121.899 128.815C122.369 128.668 122.168 127.921 121.698 128.044C117.449 129.346 112.897 129.262 108.698 127.805C108.228 127.643 108.028 128.383 108.49 128.576V128.568Z" fill="#F2A196"/>
</svg>
