<svg width="1512" height="1718" viewBox="0 0 1512 1718" fill="none" xmlns="http://www.w3.org/2000/svg">
<g opacity="0.4" clip-path="url(#clip0_475_1105)">
<path d="M-2377.92 1515.65C-2231.29 1345.19 -2007.86 1215.78 -1770.62 1125.18C-1490.9 1018.38 -1191.18 966.933 -898.078 922.637C-593.258 876.487 -288.324 832.886 14.5147 764.255C298.996 699.779 581.107 614.04 843.162 493.205C1080.16 383.901 1300.78 246.242 1474.26 81.2184C1494.97 61.5569 1514.98 41.5593 1534.31 21.2255C1547.9 6.8778 1519.62 -3.3325 1506.08 10.95C1342.34 183.257 1126.36 328.005 890.41 443.299C633.327 568.962 354.345 658.559 71.9227 725.868C-232.582 798.44 -540.043 844.393 -846.902 890.184C-1141.19 934.346 -1440.97 982.117 -1724.62 1082.38C-1961.4 1166.14 -2187.88 1285.6 -2350.05 1445.39C-2369.93 1464.93 -2388.53 1484.93 -2406.14 1505.42C-2418.82 1520.19 -2390.61 1530.41 -2377.92 1515.65Z" fill="url(#paint0_linear_475_1105)"/>
<path d="M1507.3 21.0416C1341.96 192.213 1125.89 336.632 889.903 451.53C634.099 576.341 356.769 665.138 75.7126 731.116C-229.047 802.745 -536.648 847.118 -844.004 892.132C-1139.4 935.38 -1439.86 983.032 -1725.59 1080.93C-1965.97 1163.33 -2199.72 1281.72 -2368.7 1441.02C-2388.75 1459.93 -2407.85 1479.33 -2426 1499.21C-2439.33 1513.74 -2411.05 1523.95 -2397.86 1509.46C-2242.5 1339.62 -2012.06 1211.4 -1770.43 1122.7C-1488.32 1019.15 -1189.02 968.018 -894.75 924.317C-589.834 879.052 -284.664 836.854 18.455 769.26C301.37 706.169 581.828 621.23 842.575 501.407C1079.47 392.534 1300.75 255.155 1475.01 91.1831C1495.91 71.5361 1516.15 51.5627 1535.73 31.2628C1549.48 16.973 1521.21 6.80987 1507.5 20.9871L1507.3 21.0416Z" fill="url(#paint1_linear_475_1105)"/>
<path d="M1508.47 31.1971C1341.23 201.766 1124.5 345.605 888.109 460.311C631.696 584.73 353.929 673.24 72.2443 738.225C-232.282 808.324 -539.367 850.887 -845.976 894.941C-1141.79 937.442 -1442.29 984.952 -1729.05 1080.6C-1972.41 1161.58 -2210.24 1277.89 -2386.33 1435.37C-2407.29 1454.09 -2427.3 1473.41 -2446.41 1493.14C-2460.23 1507.41 -2431.97 1517.57 -2418.19 1503.37C-2255.17 1335.31 -2019.84 1209.51 -1775.53 1122.2C-1491.92 1020.98 -1192.37 969.986 -897.493 926.93C-593.203 882.542 -288.509 842.041 14.2433 776.014C297.729 714.235 578.58 629.949 839.897 510.376C1077.16 401.808 1298.71 264.911 1474.79 101.512C1495.97 81.8244 1516.55 61.7918 1536.53 41.4146C1550.45 27.2301 1522.19 17.067 1508.39 31.1681L1508.47 31.1971Z" fill="url(#paint2_linear_475_1105)"/>
<path d="M1509.55 41.3252C1340 211.814 1121.13 355.978 883.008 470.695C624.162 595.418 343.891 683.441 59.8626 746.935C-242.791 814.656 -547.725 855.07 -852.183 898.036C-1147.84 939.786 -1447.82 987.359 -1735.03 1081.1C-1980.65 1160.87 -2221.36 1274.77 -2404.03 1429.99C-2425.78 1448.47 -2446.5 1467.52 -2466.41 1486.97C-2480.81 1500.98 -2452.68 1511.13 -2438.26 1497.22C-2268.18 1331.59 -2028.7 1208.36 -1782.33 1122.57C-1497.86 1023.5 -1198.64 972.591 -903.663 930.166C-601.482 886.753 -298.989 848.214 1.8234 784.583C287.414 724.207 570.538 640.622 834.126 520.941C1073.14 412.457 1296.27 275.285 1474.88 111.959C1496.49 92.2036 1517.42 72.0272 1537.64 51.6369C1551.77 37.699 1523.45 27.3473 1509.5 41.3903L1509.55 41.3252Z" fill="url(#paint3_linear_475_1105)"/>
<path d="M1510.64 51.452C1339.84 220.255 1122.26 363.36 885.406 477.432C627.192 601.832 347.967 689.472 64.3246 752.002C-239.2 818.895 -544.943 857.909 -850.167 900.172C-1145.29 940.969 -1444 987.944 -1731.4 1078.3C-1980.44 1156.61 -2225.25 1267.83 -2416.29 1420.3C-2439.7 1438.98 -2462.15 1458.23 -2483.62 1478.07C-2498.36 1491.61 -2476.15 1507.56 -2461.25 1493.82C-2282.78 1329.72 -2040.55 1208.38 -1790.28 1123.21C-1504.76 1026.13 -1205.54 975.218 -910.218 933.305C-605.931 890.233 -301.4 853.115 1.71161 790.279C287.206 731.143 569.558 648.425 832.993 529.24C1072.09 421.086 1295.12 284.298 1475.21 121.937C1497.05 102.222 1518.2 82.0853 1538.86 61.7275C1553.06 47.7715 1524.77 37.5141 1510.64 51.452Z" fill="url(#paint4_linear_475_1105)"/>
<path d="M1511.72 61.5793C1338.2 230.41 1118.76 373.816 880.051 487.935C621.795 611.385 343.064 697.93 59.802 758.94C-243.087 824.195 -547.994 861.516 -852.325 902.829C-1149.58 943.19 -1450.52 990.415 -1740.61 1079.88C-1990.83 1157 -2237.22 1265.86 -2433.55 1414.95C-2457.76 1433.34 -2481.08 1452.3 -2503.49 1471.85C-2518.8 1485.15 -2496.53 1501.03 -2481.05 1487.59C-2296.33 1326.91 -2051.88 1208.51 -1800.11 1124.6C-1511.68 1028.45 -1210.16 977.277 -912.414 935.82C-610.223 893.771 -307.957 858.378 -6.50142 797.659C280.9 739.728 565.112 657.771 830.486 538.315C1070.15 430.364 1293.67 293.844 1475.46 132.188C1497.79 112.392 1519.29 92.2125 1540.35 71.7462C1554.68 57.7539 1526.63 47.5836 1512.12 61.4705L1511.72 61.5793Z" fill="url(#paint5_linear_475_1105)"/>
<path d="M1512.88 71.7359C1337.44 239.315 1117.86 382.456 879.008 496.31C618.566 620.453 337.652 706.627 51.8795 766.596C-252.004 830.299 -557.727 865.665 -862.788 906.67C-1158.35 946.118 -1457.54 993.426 -1746.23 1080.34C-1998.83 1156.38 -2248.2 1263.26 -2451.33 1409.8C-2476.34 1427.89 -2500.51 1446.53 -2523.84 1465.72C-2539.71 1478.81 -2517.44 1494.7 -2501.45 1481.52C-2308.16 1322.77 -2058.83 1206.44 -1803.64 1124.04C-1516.81 1031.31 -1218.32 980.342 -922.998 939.745C-618.862 897.978 -314.546 864.055 -11.1291 804.474C277.404 747.805 562.583 666.498 828.879 546.994C1068.71 439.403 1292.24 303.184 1475.45 142.51C1498 122.755 1519.79 102.597 1541.08 82.1708C1555.55 68.1424 1527.4 58.1498 1512.94 71.9245L1512.88 71.7359Z" fill="url(#paint6_linear_475_1105)"/>
<path d="M1516.89 79.1008C1339.8 245.657 1121.81 388.27 883.206 502.258C621.54 627.186 339.384 713.292 52.1126 772.503C-251.315 834.969 -556.313 869.027 -860.759 908.853C-1156.51 947.594 -1455.33 994.398 -1745.16 1078.99C-2003.89 1154.41 -2259.41 1260.32 -2470.95 1406.1C-2496.03 1423.4 -2520.37 1441.23 -2543.97 1459.58C-2560.36 1472.36 -2538 1488.32 -2521.52 1475.36C-2321.23 1319.63 -2068.84 1205.86 -1811.42 1124.52C-1522.49 1033.15 -1222.54 982.292 -925.578 942.162C-623.563 901.324 -321.324 869.024 -19.8016 811.474C268.135 756.585 552.611 676.934 819.047 559.012C1060.98 451.761 1286.48 315.366 1472.69 154.892C1495.5 135.233 1517.7 115.236 1539.28 94.9004C1553.77 81.2201 1531.29 65.3442 1516.89 79.1008Z" fill="url(#paint7_linear_475_1105)"/>
<path d="M1518 89.3222C1338.31 255.57 1118.94 398.403 878.817 512.347C618.168 635.989 337.537 720.822 51.5681 778.467C-252.459 839.781 -557.974 872.46 -862.903 911.558C-1159.62 949.649 -1459.23 996.464 -1750.49 1079.47C-2011.98 1154.01 -2270.11 1258 -2488.36 1400.99C-2514.21 1418.1 -2539.43 1435.61 -2564.01 1453.52C-2580.91 1465.98 -2558.53 1481.78 -2541.63 1469.32C-2332.93 1315.97 -2075.75 1204.24 -1814.2 1123.81C-1524.64 1034.79 -1225.02 984.278 -928.07 944.91C-625.315 904.681 -322.506 873.694 -20.2377 817.308C267.175 763.673 551.409 685.252 817.988 567.594C1060.15 460.637 1285.71 324.478 1473.33 164.987C1496.42 145.256 1518.91 125.296 1540.82 105.108C1555.48 91.5326 1533.26 75.5841 1518.43 89.3079L1518 89.3222Z" fill="url(#paint8_linear_475_1105)"/>
<path d="M1519.01 99.1668C1336.12 264.511 1117.97 407.808 876.23 521.393C612.458 645.981 328.498 730.196 39.2468 786.604C-264.406 845.843 -568.989 876.652 -873.498 915.181C-1169.61 952.602 -1468.44 999.613 -1759.51 1080.94C-2022.56 1154.5 -2282.22 1256.27 -2505.77 1395.63C-2532.51 1412.3 -2558.63 1429.48 -2584.13 1447.17C-2601.5 1459.25 -2579.04 1475.03 -2561.68 1462.95C-2346.8 1313.6 -2087.62 1204.46 -1824.32 1125.18C-1534.42 1037.94 -1235.26 987.35 -938.569 948.356C-636.73 908.728 -334.862 879.311 -33.3275 824.995C257.447 772.627 544.672 695.167 813.957 576.879C1058.31 470.264 1281.66 334.118 1472.75 175.313C1496.14 155.497 1519.09 135.433 1541.58 115.119C1556.47 101.584 1534.26 85.6353 1519.19 99.3192L1519.01 99.1668Z" fill="url(#paint9_linear_475_1105)"/>
<path d="M1520.16 109.53C1334.73 274.619 1114.81 417.71 871.75 531.407C607.72 655.305 323.843 738.234 34.6911 793.148C-267.016 850.546 -569.618 879.908 -871.775 917.295C-1168.85 954.067 -1468.33 1000.85 -1760.74 1080.37C-2028.59 1153.19 -2294.68 1253.77 -2525.5 1391.76C-2552.21 1407.68 -2578.39 1424.1 -2604.05 1441.02C-2621.8 1452.75 -2599.36 1468.49 -2581.67 1456.82C-2358.64 1309.97 -2094.36 1202.65 -1826.89 1124.46C-1535.18 1039.11 -1234.94 988.783 -937.006 950.412C-637.275 911.759 -337.56 883.683 -38.0395 831.226C252.422 780.359 539.468 704.364 808.873 587.055C1054.58 480.307 1279.56 344.196 1472.75 185.429C1496.53 165.78 1519.86 145.745 1542.76 125.322C1557.75 111.911 1535.54 95.9621 1520.32 109.588L1520.16 109.53Z" fill="url(#paint10_linear_475_1105)"/>
<path d="M1521.31 119.639C1332.8 284.967 1110.39 428.255 865.215 542.33C600.245 665.673 315.733 747.053 25.9851 800.56C-275.284 856.12 -576.878 883.895 -878.292 920.575C-1176.16 956.803 -1476.32 1003.72 -1769.86 1082.02C-2039.45 1153.96 -2307.08 1252.57 -2542.95 1386.51C-2570.5 1402.16 -2597.46 1418.35 -2624.11 1434.91C-2642.25 1446.24 -2619.67 1461.94 -2601.65 1450.69C-2371.27 1307.11 -2103.46 1201.97 -1832.78 1124.73C-1540.89 1041.41 -1241.1 991.257 -943.519 953.438C-643.301 915.26 -343.178 888.692 -43.0452 837.436C247.828 787.824 535.16 713.42 805.283 596.373C1051.57 489.661 1277.53 353.96 1472.38 195.748C1496.74 175.942 1520.51 155.839 1543.7 135.439C1558.92 122.067 1536.64 106.137 1521.31 119.639Z" fill="url(#paint11_linear_475_1105)"/>
<path d="M1522.39 129.767C1332.06 294.086 1108.94 436.66 863.665 550.691C598.835 673.491 314.751 753.794 25.3794 806.036C-276.209 860.417 -578.641 886.952 -880.581 923.015C-1176.61 958.34 -1474.75 1004.76 -1767.02 1080.29C-2040.07 1150.89 -2311.34 1247.2 -2554.28 1377.59C-2583.58 1393.3 -2612.42 1409.53 -2640.82 1426.28C-2659.44 1437.18 -2644.43 1457.61 -2625.83 1446.61C-2387.8 1306.57 -2117.51 1202.93 -1842.81 1126.18C-1550.66 1044.61 -1251.33 994.377 -954.06 956.996C-653.366 919.247 -352.874 894.046 -52.1867 844.309C239.71 796.089 528.251 723.231 799.771 606.564C1047.65 499.694 1275.47 363.981 1472.64 205.745C1497.25 186.005 1521.36 165.996 1544.97 145.719C1560.36 132.452 1538.15 116.503 1522.58 129.919L1522.39 129.767Z" fill="url(#paint12_linear_475_1105)"/>
<path d="M1523.48 139.894C1331.46 303.37 1107.65 445.401 862.243 559.523C595.014 683.022 308.271 762.527 16.4728 813.502C-284.544 866.009 -585.85 891.127 -886.897 926.24C-1183.6 960.938 -1482.11 1007.56 -1775.3 1081.83C-2050.65 1151.62 -2323.88 1246.04 -2572.23 1372.88C-2602.17 1388.16 -2631.73 1403.96 -2660.91 1420.28C-2679.65 1430.76 -2664.85 1451.19 -2645.86 1440.59C-2402.84 1304.92 -2131.48 1203.88 -1855.95 1128.37C-1561.49 1047.64 -1260.5 997.159 -961.081 960.007C-659.711 922.631 -358.594 898.678 -57.1761 850.312C234.302 803.47 522.514 732.319 794.075 616.602C1043.47 509.577 1273.09 373.87 1472.51 215.643C1497.43 195.956 1521.85 175.863 1545.78 155.364C1561.39 142.137 1539.13 126.253 1523.39 139.564L1523.48 139.894Z" fill="url(#paint13_linear_475_1105)"/>
<path d="M1524.58 150.068C1328.94 312.889 1103.22 456.982 855.318 570.602C587.446 693.314 300.08 771.317 7.98603 820.4C-292.459 871.033 -592.894 894.852 -893.268 929.531C-1190.71 963.873 -1489.6 1010.44 -1784.03 1083.58C-2062.58 1152.72 -2338.83 1245.78 -2592.91 1369.52C-2622.54 1384 -2651.88 1398.92 -2680.94 1414.26C-2700.17 1424.52 -2685.26 1444.82 -2665.96 1434.59C-2415.99 1302.56 -2141.09 1203.44 -1862.06 1128.91C-1567.56 1050.19 -1267.04 999.837 -968.023 963.048C-667.501 926.255 -367.201 903.534 -66.5273 856.937C226.281 811.557 516.329 741.882 789.505 626.286C1039.67 520.502 1270.7 382.763 1472.01 226.046C1497.47 206.214 1522.47 186.064 1547.04 165.596C1562.76 152.492 1540.49 136.609 1524.59 149.861L1524.58 150.068Z" fill="url(#paint14_linear_475_1105)"/>
<path d="M1525.73 160.177C1327.82 321.79 1101.96 465.872 853.498 579.289C583.348 702.617 293.301 779.474 -1.06114 827.349C-300.788 876.118 -600.017 898.549 -899.89 932.687C-1195.31 966.28 -1492.28 1012.48 -1784.79 1083.17C-2068.17 1151.71 -2349.02 1243.43 -2610.33 1364.36C-2640.91 1378.53 -2671.2 1393.13 -2701.21 1408.16C-2720.78 1417.95 -2705.79 1438.28 -2686.16 1428.47C-2429.5 1300.19 -2150.56 1202.71 -1868.47 1129.38C-1573.74 1052.57 -1273.45 1002.43 -974.619 966.298C-673.192 929.666 -372.589 908.33 -71.3451 863.046C220.789 819.163 510.589 751.225 783.815 636.879C1035.62 531.31 1268.11 392.871 1472.08 236.397C1497.86 216.628 1523.18 196.478 1548.16 176.118C1564.12 163.102 1541.78 147.237 1525.77 160.318L1525.73 160.177Z" fill="url(#paint15_linear_475_1105)"/>
<path d="M1526.81 170.304C1325.96 331.398 1098.5 476.216 848.171 589.632C577.846 712.046 288.035 787.119 -6.00093 833.54C-306.085 880.989 -606.219 902.198 -906.312 935.789C-1203.56 969.015 -1502.37 1015.57 -1796.94 1085.55C-2081.35 1153.2 -2363.21 1242.81 -2628.19 1359.48C-2659.53 1373.01 -2690.44 1387.39 -2721.16 1401.92C-2741.05 1411.29 -2726.05 1431.67 -2706.17 1422.25C-2443.69 1298.21 -2162.26 1203.05 -1876.97 1130.41C-1581.06 1055 -1280.61 1004.92 -981.185 969.136C-679.458 933.079 -378.214 912.785 -76.3194 868.842C216.44 826.206 507.33 759.643 781.315 645.446C1035.21 539.616 1268.55 400.34 1474.85 243.994C1500.04 224.943 1524.77 205.558 1549.18 186.01C1565.31 173.099 1543 157.328 1526.79 170.21L1526.81 170.304Z" fill="url(#paint16_linear_475_1105)"/>
<path d="M1527.91 180.479C1324.58 340.372 1097.12 485.19 846.23 598.403C574.89 720.787 283.922 794.504 -10.8187 839.649C-311.939 885.658 -612.219 905.794 -912.88 938.881C-1212.06 971.87 -1512.47 1018.65 -1809.28 1088.03C-2094.89 1154.73 -2377.63 1242.36 -2646.2 1354.79C-2678.11 1368.14 -2709.79 1381.85 -2741.26 1395.92C-2761.4 1404.91 -2746.34 1425.22 -2726.2 1416.23C-2459.46 1297.06 -2176.52 1204.27 -1889.93 1132.7C-1592.09 1058.34 -1289.58 1007.91 -988.209 972.401C-686.837 936.896 -384.253 917.301 -81.6827 874.794C211.781 833.435 503.921 768.304 778.837 654.362C1033.27 548.942 1266.63 409.459 1474.79 254.128C1500.31 235.087 1525.46 215.794 1550.22 196.25C1566.59 183.425 1544.18 167.531 1527.84 180.497L1527.91 180.479Z" fill="url(#paint17_linear_475_1105)"/>
<path d="M1529 190.606C1321.77 350.44 1092.26 496.468 838.381 609.782C566.358 731.238 274.699 802.664 -20.0096 846.332C-320.293 890.649 -619.649 909.421 -919.515 941.99C-1217.99 974.385 -1517.72 1021.03 -1813.93 1088.63C-2103.04 1154.61 -2389.23 1240.69 -2663.51 1349.55C-2696.36 1362.58 -2728.96 1376 -2761.42 1389.69C-2781.81 1398.28 -2766.69 1418.58 -2746.43 1410.02C-2472.99 1294.6 -2186.3 1203.73 -1895.94 1133.06C-1596.75 1060.26 -1293.36 1009.89 -991.003 974.826C-690.735 940.024 -391.361 921.853 -90.8959 881.13C202.134 841.355 494.458 778.501 769.798 665.861C1027.28 560.829 1262.59 420.013 1474.16 264.567C1500.26 245.422 1525.98 225.972 1551.45 206.388C1567.92 193.64 1545.55 177.633 1529 190.606Z" fill="url(#paint18_linear_475_1105)"/>
<path d="M1529.95 200.77C1319.27 360.07 1088.35 506.986 832.317 620.325C559.087 741.298 266.02 810.979 -29.4277 852.976C-330.279 895.726 -630.033 913.291 -930.483 945.562C-1227.87 977.461 -1526.66 1023.85 -1822.16 1090.09C-2114.33 1154.84 -2402.19 1240.13 -2681.49 1344.71C-2714.97 1357.37 -2748.3 1370.31 -2781.48 1383.53C-2802.06 1391.72 -2786.87 1412 -2766.43 1403.84C-2488.05 1292.86 -2198.04 1203.92 -1904.84 1134.2C-1605.96 1063.15 -1303.24 1012.96 -1001.5 978.271C-699.766 943.579 -401.02 926.539 -100.081 887.306C193.29 849.058 486.819 788.003 763.014 676.396C1022.68 571.434 1259.34 429.795 1473.87 274.662C1500.33 255.536 1526.49 236.172 1552.33 216.569C1568.99 203.974 1546.66 188.156 1529.95 200.77Z" fill="url(#paint19_linear_475_1105)"/>
<path d="M1531.24 210.843C1318.1 368.783 1086.94 516.119 830.188 629.197C555.972 749.982 261.748 818.306 -34.3881 858.82C-337.255 900.496 -638.903 916.904 -941.327 949.051C-1239.57 980.151 -1538.24 1028.11 -1834.66 1092.51C-2129.11 1156.74 -2419.76 1239.95 -2703.02 1341.12C-2736.01 1352.94 -2768.85 1365.02 -2801.55 1377.37C-2822.3 1385.16 -2807.12 1405.43 -2786.56 1397.7C-2503.88 1291.99 -2213.09 1204.49 -1917.92 1136.32C-1618.05 1067.29 -1315.4 1015.6 -1012.92 981.764C-710.212 947.213 -408.433 931.023 -105.8 893.001C188.195 856 482.866 796.508 760.311 685.271C1020.82 580.788 1257.51 438.736 1473.91 284.618C1500.8 265.509 1527.37 246.184 1553.62 226.642C1570.44 214.152 1548.12 198.334 1531.24 210.843Z" fill="url(#paint20_linear_475_1105)"/>
<path d="M1532.33 221.017C1316.67 377.568 1085.31 525.26 827.723 638.159C552.655 758.719 257.146 825.216 -39.4299 864.635C-340.019 904.633 -639.29 919.993 -939.459 951.177C-1239.56 981.994 -1540.14 1029.41 -1838.62 1093.03C-2134.33 1156.26 -2426.82 1236.67 -2713.15 1333.44C-2747.96 1345.24 -2782.68 1357.29 -2817.31 1369.59C-2838.1 1376.98 -2831.93 1400.61 -2810.94 1393.16C-2524.84 1291.86 -2232.03 1207 -1935.48 1139.45C-1633.51 1070.91 -1328.91 1019.35 -1024.49 985.246C-721.02 950.843 -418.747 935.683 -115.103 899.007C179.166 863.551 475 805.97 753.434 695.73C1016.35 591.658 1254.45 448.416 1473.74 294.629C1500.97 275.53 1527.98 256.238 1554.77 236.752C1571.78 224.414 1549.33 208.632 1532.33 221.017Z" fill="url(#paint21_linear_475_1105)"/>
<path d="M1533.42 231.144C1314.38 387.19 1081.5 536.155 821.459 648.756C545.278 768.656 248.274 833.078 -48.7101 870.989C-349.866 909.42 -649.498 923.714 -950.238 954.647C-1249.46 985.387 -1549.15 1032.13 -1846.92 1094.51C-2145.26 1157.18 -2440.84 1235.41 -2731.29 1328.58C-2766.83 1339.97 -2802.27 1351.58 -2837.61 1363.39C-2858.58 1370.38 -2852.39 1394.05 -2831.23 1386.96C-2540.41 1289.71 -2244.06 1207.31 -1944.56 1140.44C-1642.94 1073.4 -1338.92 1022.63 -1035.09 988.568C-731.145 954.34 -428.63 940.075 -124.578 904.908C169.914 870.808 466.75 815.334 746.197 706.185C1011.61 602.552 1250.96 458.111 1473.34 304.6C1501.04 285.528 1528.45 266.227 1555.72 246.915C1572.9 234.682 1550.45 218.901 1533.27 231.133L1533.42 231.144Z" fill="url(#paint22_linear_475_1105)"/>
<path d="M1534.57 241.253C1311.58 396.497 1077.52 546.944 815.008 659.454C539.086 777.918 242.216 840.179 -53.5874 876.607C-355.369 913.791 -655.562 927.073 -956.898 957.662C-1256.54 988.271 -1556.68 1034.46 -1855.03 1095.89C-2156.13 1158.09 -2454.91 1234.25 -2749.45 1323.88C-2785.58 1334.86 -2821.69 1346.02 -2857.78 1357.37C-2878.99 1364.01 -2872.75 1387.62 -2851.41 1380.94C-2556.01 1287.73 -2256.14 1207.82 -1953.64 1141.68C-1651.35 1075.78 -1346.87 1025.57 -1042.58 991.452C-737.834 957.514 -434.582 944.112 -130.039 910.229C163.059 877.618 459.536 824.011 738.547 716.701C1006.61 613.566 1247.27 467.859 1472.74 314.578C1500.79 295.493 1528.68 276.282 1556.42 256.944C1573.79 244.863 1551.33 229.082 1534.04 241.144L1534.57 241.253Z" fill="url(#paint23_linear_475_1105)"/>
<path d="M1535.68 251.476C1308.12 406.587 1071.73 559.032 805.466 671.494C528.102 788.88 228.781 848.719 -67.8422 883.446C-368.704 918.712 -667.802 930.991 -968.293 961.25C-1268.32 991.877 -1568.84 1037.64 -1867.7 1098.21C-2169.95 1159.6 -2470.27 1233.26 -2767.21 1318.81C-2804.08 1329.39 -2840.91 1340.11 -2877.7 1350.97C-2899.07 1357.25 -2892.77 1380.84 -2871.33 1374.54C-2572.86 1285.85 -2270.88 1208.78 -1966.76 1143.66C-1662.33 1078.59 -1355.88 1028.77 -1049.64 994.576C-748.633 961.446 -449.394 948.624 -148.447 917.128C146.74 886.129 445.842 835.05 727.923 728.73C999.889 626.208 1242.57 478.642 1472.34 325.105C1501.08 305.902 1529.69 286.566 1558.16 267.098C1575.71 255.17 1553.26 239.388 1535.77 251.298L1535.68 251.476Z" fill="url(#paint24_linear_475_1105)"/>
<path d="M1536.75 261.555C1305.31 415.847 1067.37 569.77 798.441 682.195C519.888 798.639 219.489 856.088 -77.303 889.394C-378.573 923.151 -678.006 934.458 -979.042 964.561C-1278.19 995.137 -1577.81 1040.29 -1875.92 1099.72C-2181 1159.8 -2484.28 1232.9 -2785.14 1314.15C-2822.75 1324.32 -2860.27 1334.6 -2897.72 1345C-2919.28 1350.83 -2912.98 1374.42 -2891.34 1368.57C-2588.4 1284.63 -2283.1 1208.35 -1975.75 1144.72C-1671.67 1081.11 -1365.77 1032.06 -1060.1 997.909C-758.689 964.924 -459.142 952.979 -158.185 922.847C138.05 893.334 439.64 844.011 723.144 738.167C996.587 636.055 1239.59 487.843 1471.58 335.278C1500.78 316.049 1529.9 296.744 1558.93 277.362C1576.59 265.604 1554.08 249.888 1536.48 261.628L1536.75 261.555Z" fill="url(#paint25_linear_475_1105)"/>
<path d="M1537.84 271.682C1301.07 426.201 1060.34 582.596 786.569 694.915C506.836 809.654 204.964 864.315 -91.725 895.873C-390.446 927.626 -687.292 938.132 -985.85 967.565C-1288.67 997.442 -1592.34 1044.65 -1894.42 1103.06C-2199.68 1162.22 -2503.98 1233.17 -2806.21 1310.14C-2843.48 1319.61 -2880.69 1329.18 -2917.85 1338.86C-2939.48 1344.45 -2933.11 1368.02 -2911.48 1362.43C-2608.07 1283.67 -2303.19 1210.35 -1996.51 1148.21C-1689.83 1086.08 -1380.18 1034.93 -1071.06 1001.23C-768.76 968.355 -468.514 957.132 -166.505 928.233C127.791 900.054 428.305 853.399 711.107 750.274C989.697 648.591 1235.36 497.991 1472.14 344.535C1501.59 325.477 1530.95 306.391 1560.24 287.276C1578.08 275.623 1555.57 259.907 1537.79 271.494L1537.84 271.682Z" fill="url(#paint26_linear_475_1105)"/>
</g>
<defs>
<linearGradient id="paint0_linear_475_1105" x1="-2334.16" y1="1376.51" x2="1497.31" y2="474.978" gradientUnits="userSpaceOnUse">
<stop offset="0.736111" stop-color="#77D1D7"/>
<stop offset="1" stop-color="#3316E3"/>
</linearGradient>
<linearGradient id="paint1_linear_475_1105" x1="-2352.35" y1="1375.95" x2="1495.71" y2="477.87" gradientUnits="userSpaceOnUse">
<stop offset="0.736111" stop-color="#77D1D7"/>
<stop offset="1" stop-color="#3316E3"/>
</linearGradient>
<linearGradient id="paint2_linear_475_1105" x1="-2371.02" y1="1375.52" x2="1493.65" y2="481.708" gradientUnits="userSpaceOnUse">
<stop offset="0.736111" stop-color="#77D1D7"/>
<stop offset="1" stop-color="#3316E3"/>
</linearGradient>
<linearGradient id="paint3_linear_475_1105" x1="-2389.34" y1="1375.02" x2="1492.02" y2="486.502" gradientUnits="userSpaceOnUse">
<stop offset="0.736111" stop-color="#77D1D7"/>
<stop offset="1" stop-color="#3316E3"/>
</linearGradient>
<linearGradient id="paint4_linear_475_1105" x1="-2405.22" y1="1375.01" x2="1490.84" y2="492.487" gradientUnits="userSpaceOnUse">
<stop offset="0.736111" stop-color="#77D1D7"/>
<stop offset="1" stop-color="#3316E3"/>
</linearGradient>
<linearGradient id="paint5_linear_475_1105" x1="-2423.41" y1="1374.46" x2="1489.95" y2="499.474" gradientUnits="userSpaceOnUse">
<stop offset="0.736111" stop-color="#77D1D7"/>
<stop offset="1" stop-color="#3316E3"/>
</linearGradient>
<linearGradient id="paint6_linear_475_1105" x1="-2440.89" y1="1378.5" x2="1489.03" y2="509.147" gradientUnits="userSpaceOnUse">
<stop offset="0.736111" stop-color="#77D1D7"/>
<stop offset="1" stop-color="#3316E3"/>
</linearGradient>
<linearGradient id="paint7_linear_475_1105" x1="-2456.2" y1="1389.73" x2="1487.02" y2="519.329" gradientUnits="userSpaceOnUse">
<stop offset="0.736111" stop-color="#77D1D7"/>
<stop offset="1" stop-color="#3316E3"/>
</linearGradient>
<linearGradient id="paint8_linear_475_1105" x1="-2471.14" y1="1401.83" x2="1488.08" y2="530.829" gradientUnits="userSpaceOnUse">
<stop offset="0.736111" stop-color="#77D1D7"/>
<stop offset="1" stop-color="#3316E3"/>
</linearGradient>
<linearGradient id="paint9_linear_475_1105" x1="-2486.17" y1="1413.52" x2="1488.39" y2="542.127" gradientUnits="userSpaceOnUse">
<stop offset="0.736111" stop-color="#77D1D7"/>
<stop offset="1" stop-color="#3316E3"/>
</linearGradient>
<linearGradient id="paint10_linear_475_1105" x1="-2500.96" y1="1425.41" x2="1489.03" y2="553.776" gradientUnits="userSpaceOnUse">
<stop offset="0.736111" stop-color="#77D1D7"/>
<stop offset="1" stop-color="#3316E3"/>
</linearGradient>
<linearGradient id="paint11_linear_475_1105" x1="-2515.88" y1="1437.25" x2="1489.51" y2="565.345" gradientUnits="userSpaceOnUse">
<stop offset="0.736111" stop-color="#77D1D7"/>
<stop offset="1" stop-color="#3316E3"/>
</linearGradient>
<linearGradient id="paint12_linear_475_1105" x1="-2529.49" y1="1448.84" x2="1490.33" y2="577.102" gradientUnits="userSpaceOnUse">
<stop offset="0.736111" stop-color="#77D1D7"/>
<stop offset="1" stop-color="#3316E3"/>
</linearGradient>
<linearGradient id="paint13_linear_475_1105" x1="-2544.43" y1="1460.49" x2="1490.74" y2="588.428" gradientUnits="userSpaceOnUse">
<stop offset="0.736111" stop-color="#77D1D7"/>
<stop offset="1" stop-color="#3316E3"/>
</linearGradient>
<linearGradient id="paint14_linear_475_1105" x1="-2559.42" y1="1472.48" x2="1491.5" y2="600.524" gradientUnits="userSpaceOnUse">
<stop offset="0.736111" stop-color="#77D1D7"/>
<stop offset="1" stop-color="#3316E3"/>
</linearGradient>
<linearGradient id="paint15_linear_475_1105" x1="-2574.42" y1="1484.72" x2="1492.2" y2="612.934" gradientUnits="userSpaceOnUse">
<stop offset="0.736111" stop-color="#77D1D7"/>
<stop offset="1" stop-color="#3316E3"/>
</linearGradient>
<linearGradient id="paint16_linear_475_1105" x1="-2589.22" y1="1496.49" x2="1492.82" y2="624.845" gradientUnits="userSpaceOnUse">
<stop offset="0.736111" stop-color="#77D1D7"/>
<stop offset="1" stop-color="#3316E3"/>
</linearGradient>
<linearGradient id="paint17_linear_475_1105" x1="-2604.08" y1="1508.54" x2="1493.48" y2="637.162" gradientUnits="userSpaceOnUse">
<stop offset="0.736111" stop-color="#77D1D7"/>
<stop offset="1" stop-color="#3316E3"/>
</linearGradient>
<linearGradient id="paint18_linear_475_1105" x1="-2619.61" y1="1518.11" x2="1492.53" y2="640.065" gradientUnits="userSpaceOnUse">
<stop offset="0.736111" stop-color="#77D1D7"/>
<stop offset="1" stop-color="#3316E3"/>
</linearGradient>
<linearGradient id="paint19_linear_475_1105" x1="-2635.32" y1="1526.6" x2="1490.57" y2="639.38" gradientUnits="userSpaceOnUse">
<stop offset="0.736111" stop-color="#77D1D7"/>
<stop offset="1" stop-color="#3316E3"/>
</linearGradient>
<linearGradient id="paint20_linear_475_1105" x1="-2651.05" y1="1535.04" x2="1489" y2="638.713" gradientUnits="userSpaceOnUse">
<stop offset="0.736111" stop-color="#77D1D7"/>
<stop offset="1" stop-color="#3316E3"/>
</linearGradient>
<linearGradient id="paint21_linear_475_1105" x1="-2666.2" y1="1543.2" x2="1487.24" y2="637.883" gradientUnits="userSpaceOnUse">
<stop offset="0.736111" stop-color="#77D1D7"/>
<stop offset="1" stop-color="#3316E3"/>
</linearGradient>
<linearGradient id="paint22_linear_475_1105" x1="-2682.23" y1="1551.33" x2="1485.19" y2="636.853" gradientUnits="userSpaceOnUse">
<stop offset="0.736111" stop-color="#77D1D7"/>
<stop offset="1" stop-color="#3316E3"/>
</linearGradient>
<linearGradient id="paint23_linear_475_1105" x1="-2698.3" y1="1559.19" x2="1482.84" y2="635.464" gradientUnits="userSpaceOnUse">
<stop offset="0.736111" stop-color="#77D1D7"/>
<stop offset="1" stop-color="#3316E3"/>
</linearGradient>
<linearGradient id="paint24_linear_475_1105" x1="-2714" y1="1566.83" x2="1481.25" y2="633.128" gradientUnits="userSpaceOnUse">
<stop offset="0.736111" stop-color="#77D1D7"/>
<stop offset="1" stop-color="#3316E3"/>
</linearGradient>
<linearGradient id="paint25_linear_475_1105" x1="-2730.08" y1="1574.06" x2="1478.49" y2="630.26" gradientUnits="userSpaceOnUse">
<stop offset="0.736111" stop-color="#77D1D7"/>
<stop offset="1" stop-color="#3316E3"/>
</linearGradient>
<linearGradient id="paint26_linear_475_1105" x1="-2746.39" y1="1580.32" x2="1475.93" y2="625.378" gradientUnits="userSpaceOnUse">
<stop offset="0.736111" stop-color="#77D1D7"/>
<stop offset="1" stop-color="#3316E3"/>
</linearGradient>
<clipPath id="clip0_475_1105">
<rect width="4664.3" height="518.255" fill="white" transform="translate(-2968 1217.45) rotate(-15.1303)"/>
</clipPath>
</defs>
</svg>
