<svg width="138" height="227" viewBox="0 0 138 227" fill="none" xmlns="http://www.w3.org/2000/svg">
<path fill-rule="evenodd" clip-rule="evenodd" d="M31.3766 5.26524L6.32015 23.4881L26.9399 35.1372L53.8487 18.1032L31.3766 5.26524ZM57.0349 19.9234L57.4403 20.5637L30.8917 37.3697L65.1081 56.7001L65.2966 56.8066L65.458 56.9511C78.3274 68.4674 81.6675 88.9703 72.963 104.838L96.6489 91.0999L96.5816 91.0216C105.8 83.099 109.163 74.0184 108.316 65.3245C107.466 56.599 102.342 47.9416 93.9295 41.0006L57.0349 19.9234ZM1.31679 22.181L1.19934 22.2664L1.23828 22.3199L1.14099 22.4921H0.0962715V24.3414L0 24.5118L0.0962715 24.5662V196.448H0.44273L0.245021 196.785L25.0182 211.258L25.0782 211.156C43.2563 227.565 62.1481 228.634 75.9506 225.561L76.2756 225.489L76.5595 225.315L116.639 200.801L116.681 200.775L116.723 200.747C126.936 193.78 137.289 176.218 137.218 155.811C137.148 135.833 127.116 113.296 97.8053 95.0534L99.9584 93.8045L99.7961 93.5248C109.426 84.9766 113.266 74.8823 112.297 64.9367C111.316 54.8607 105.432 45.2576 96.3368 37.8014L96.2068 37.6949L96.0609 37.6116L32.947 1.55562L31.8156 0L2.49264 21.3258L1.96751 21.0291L1.31679 22.181ZM4.09627 194.392V26.8259L23.5217 37.8002H21.806V89.3557V204.739L4.09627 194.392ZM100.802 173.092C100.475 151.293 90.7637 127.935 67.7541 112.483L93.8692 97.3363C123.596 115.153 133.152 137.01 133.218 155.825C133.285 175.035 123.489 191.26 114.508 197.416L89.6381 212.627C96.9408 202.042 101.024 187.84 100.802 173.092ZM62.949 60.0745C76.2125 72.1127 77.9939 95.163 64.5629 109.71L63.9192 110.083L25.806 88.1979V39.0908L62.949 60.0745ZM96.8029 173.152C97.1178 194.116 88.3156 213.246 74.7541 221.728C61.6774 224.556 43.7201 223.399 26.3625 206.893V93.555L64.4598 115.102C87.0238 129.731 96.4879 152.175 96.8029 173.152Z" fill="black"/>
</svg>
