<svg width="176" height="210" viewBox="0 0 176 210" fill="none" xmlns="http://www.w3.org/2000/svg">
<path fill-rule="evenodd" clip-rule="evenodd" d="M118.161 10.1156C141.263 25.1883 145.825 53.2377 146.141 78.8135C146.275 89.6262 146.173 100.392 146.071 111.143C145.873 132.06 145.675 152.922 147.212 173.973C147.104 172.471 122.746 168.857 119.964 168.733C114.116 168.481 108.067 169.03 102.086 169.573C99.1381 169.841 96.2072 170.107 93.3251 170.275C88.2982 170.589 83.1591 170.715 77.9918 170.842C68.0851 171.085 58.0749 171.33 48.5539 172.91C46.7076 173.217 44.8857 173.528 43.0787 173.837C33.5122 175.47 24.3638 177.031 14.2396 177.595C13.4393 177.734 12.6159 177.572 11.9278 177.141C11.1572 176.509 11.1572 175.368 11.1572 174.374C11.1572 162.463 11.6908 150.558 12.2239 138.662C12.977 121.858 13.7293 105.072 12.9758 88.3149C12.3055 74.059 14.6694 59.8232 19.9111 46.549C24.3895 35.102 31.415 24.8248 40.455 16.4961C42.9092 14.278 45.5434 12.2676 48.3304 10.4855C69.0361 -2.83029 97.3013 -3.49299 118.161 10.1156ZM50.2261 67.8866L61.0836 75.5925L96.0684 40.6155L91.6683 37.8337C87.4746 44.941 81.7196 51.0016 74.8386 55.5572C67.2394 60.7774 58.9574 64.9262 50.2261 67.8866Z" fill="#17191C"/>
<path d="M175.447 179.529C123.934 219.193 52.0839 218.875 0.923828 178.759L38.4207 161.182C39.5684 160.639 40.6873 160.037 41.7727 159.379L42.6358 158.839C42.944 158.647 43.2445 158.446 43.5451 158.238C48.2757 154.975 52.1528 150.622 54.8496 145.547C57.932 139.729 58.9491 133.302 58.9954 126.752C58.9954 123.153 58.849 119.555 58.7565 115.964C58.7565 115.157 58.7411 114.348 58.7102 113.536C58.6794 111.096 58.6537 108.653 58.6332 106.208H58.6871L60.159 106.979L64.166 109.051L87.5071 113.02L111.488 117.104L112.035 135.598L112.189 140.9V141.724L112.551 153.954L121.39 157.552L128.325 160.357L175.447 179.529Z" fill="#F2A196"/>
<path d="M112.035 135.606C110.374 136.743 108.39 137.314 106.379 137.232C94.9895 136.007 72.7503 127.076 58.7718 110.547C58.7718 109.74 58.7564 108.931 58.7256 108.119V106.216L60.1974 106.986L64.2045 109.059L87.5456 113.028L111.526 117.112L112.035 135.606Z" fill="#E88870"/>
<ellipse cx="39.3686" cy="81.5258" rx="13.1" ry="13.1" fill="#F2A196"/>
<ellipse cx="43.9916" cy="79.9848" rx="13.1" ry="13.1" fill="#E88870"/>
<path d="M128.402 61.691C137.449 93.0385 118.231 130.944 106.41 130.944C90.2273 130.944 50.9273 118.013 41.8883 86.6657C32.8493 55.3182 44.9013 24.3097 68.7896 17.4207C92.6778 10.5316 119.356 30.3357 128.402 61.691Z" fill="#F2A196"/>
<path d="M83.6699 99.7734C87.3707 103.91 92.4473 106.564 97.9566 107.24" stroke="#00214E"/>
<path d="M99.5596 64.9893C99.521 65.1434 103.251 71.5855 105.193 78.5439C106.094 82.2661 106.514 86.0887 106.441 89.9178H96.0303" stroke="#00214E"/>
<path d="M109.122 58.4315C114.566 55.658 120.863 55.0629 126.73 56.767" stroke="#00214E"/>
<path d="M63.542 61.4984C71.0498 57.6743 79.8704 57.3919 87.6075 60.7278" stroke="#00214E"/>
<path d="M77.0577 68.3257C81.7583 68.3642 81.7583 75.5538 77.0577 75.5846H76.8497C72.1491 75.5846 72.1491 68.3642 76.8497 68.3257H77.0577Z" fill="#17191D"/>
<path d="M115.687 67.2549C120.049 67.2549 120.049 73.959 115.687 73.9898H115.495C111.125 73.9898 111.125 67.2857 115.495 67.2549H115.687Z" fill="#111213"/>
<path d="M100.33 9.19103C99.9717 12.82 99.3874 16.423 98.5808 19.9793C97.2022 26.2548 94.8629 32.2799 91.6455 37.8415C87.4519 44.9488 81.6969 51.0095 74.8159 55.565C67.2166 60.7852 58.9346 64.934 50.2033 67.8944C43.2886 70.2434 36.2179 72.105 29.043 73.4658C29.2819 67.5862 29.043 60.3119 29.7673 53.4844C30.3067 48.5835 31.3856 43.906 33.5586 40.1379C39.4546 30.1674 48.0553 22.0717 58.3638 16.789L58.4563 16.7428C69.8533 10.8786 87.5075 5.0915 100.33 9.19103Z" fill="#171A1F"/>
<path d="M175.447 179.529C123.934 219.192 52.0839 218.875 0.923828 178.759L38.4207 161.182C40.2064 160.342 41.9203 159.358 43.5451 158.238C44.0382 157.899 44.5314 157.544 45.0015 157.174C49.0824 154.052 52.4416 150.086 54.8496 145.546C56.6701 142.058 57.8794 138.284 58.4251 134.388C58.9693 134.916 59.5403 135.414 60.1358 135.883C64.8603 139.38 69.9882 142.296 75.4089 144.568C78.0404 145.665 80.7314 146.615 83.4692 147.411C91.7176 149.816 100.33 150.727 108.899 150.1C110.085 150.008 111.28 149.892 112.466 149.808L112.582 153.722V153.977L121.906 157.768L175.447 179.529Z" fill="#F2D4CF"/>
<path d="M91.6298 37.8721C87.4361 44.9794 81.6811 51.04 74.8001 55.5956C67.2008 60.8158 58.9188 64.9646 50.1875 67.925L29.7515 53.515L19.9111 46.5797C24.3895 35.1327 31.415 24.8554 40.455 16.5268C42.9081 14.2981 45.5423 12.2773 48.3304 10.4854L58.3481 16.8196L91.6298 37.8721Z" fill="url(#paint0_linear_476_414)"/>
<defs>
<linearGradient id="paint0_linear_476_414" x1="68.0127" y1="89.5474" x2="98.9972" y2="25.2553" gradientUnits="userSpaceOnUse">
<stop offset="0.29" stop-color="#161A1F"/>
<stop offset="0.51" stop-color="#4C4F5A"/>
<stop offset="0.79" stop-color="#192028"/>
</linearGradient>
</defs>
</svg>
